<mxfile host="Electron" agent="Mozilla/5.0 (Windows NT 10.0; Win64; x64) AppleWebKit/537.36 (KHTML, like Gecko) draw.io/24.7.5 Chrome/126.0.6478.183 Electron/31.3.0 Safari/537.36" version="24.7.5">
  <diagram name="Page-1" id="iA-VA1jahUV9ztnPGay6">
    <mxGraphModel dx="1036" dy="625" grid="1" gridSize="10" guides="1" tooltips="1" connect="1" arrows="1" fold="1" page="1" pageScale="1" pageWidth="827" pageHeight="1169" math="1" shadow="0">
      <root>
        <mxCell id="0" />
        <mxCell id="1" parent="0" />
        <mxCell id="XvlVAEgpclW0M0TlVri5-1" value="" style="group" parent="1" vertex="1" connectable="0">
          <mxGeometry x="59" y="100" width="710" height="780" as="geometry" />
        </mxCell>
        <mxCell id="XvlVAEgpclW0M0TlVri5-2" value="&lt;div style=&quot;white-space: pre; font-size: 14px; color: rgb(255, 255, 255);&quot;&gt;&lt;div style=&quot;font-size: 14px; line-height: 120%;&quot;&gt;&lt;div style=&quot;font-size: 14px; line-height: 120%;&quot;&gt;&lt;div style=&quot;font-size: 14px; line-height: 126%;&quot;&gt;&lt;div style=&quot;font-size: 14px; line-height: 126%;&quot;&gt;&lt;div style=&quot;color: rgb(56, 58, 66); font-size: 14px; line-height: 19px;&quot;&gt;&lt;div style=&quot;font-size: 14px;&quot;&gt;&lt;div style=&quot;color: rgb(255, 255, 255); font-size: 14px; line-height: 19px;&quot;&gt;&lt;div style=&quot;color: rgb(56, 58, 66); line-height: 136%; font-size: 14px;&quot;&gt;&lt;div style=&quot;font-size: 14px; line-height: 136%;&quot;&gt;graph = {&lt;/div&gt;&lt;div style=&quot;font-size: 14px; line-height: 136%;&quot;&gt;&amp;nbsp; &amp;nbsp; &lt;span style=&quot;color: rgb(80, 161, 79); font-size: 14px;&quot;&gt;&#39;A&#39;&lt;/span&gt;: [(&lt;span style=&quot;color: rgb(80, 161, 79); font-size: 14px;&quot;&gt;&#39;B&#39;&lt;/span&gt;, &lt;span style=&quot;color: rgb(152, 104, 1); font-size: 14px;&quot;&gt;2&lt;/span&gt;), (&lt;span style=&quot;color: rgb(80, 161, 79); font-size: 14px;&quot;&gt;&#39;C&#39;&lt;/span&gt;, &lt;span style=&quot;color: rgb(152, 104, 1); font-size: 14px;&quot;&gt;1&lt;/span&gt;), (&lt;span style=&quot;color: rgb(80, 161, 79); font-size: 14px;&quot;&gt;&#39;D&#39;&lt;/span&gt;, &lt;span style=&quot;color: rgb(152, 104, 1); font-size: 14px;&quot;&gt;3&lt;/span&gt;)],&lt;/div&gt;&lt;div style=&quot;font-size: 14px; line-height: 136%;&quot;&gt;&amp;nbsp; &amp;nbsp; &lt;span style=&quot;color: rgb(80, 161, 79); font-size: 14px;&quot;&gt;&#39;B&#39;&lt;/span&gt;: [(&lt;span style=&quot;color: rgb(80, 161, 79); font-size: 14px;&quot;&gt;&#39;E&#39;&lt;/span&gt;, &lt;span style=&quot;color: rgb(152, 104, 1); font-size: 14px;&quot;&gt;4&lt;/span&gt;), (&lt;span style=&quot;color: rgb(80, 161, 79); font-size: 14px;&quot;&gt;&#39;F&#39;&lt;/span&gt;, &lt;span style=&quot;color: rgb(152, 104, 1); font-size: 14px;&quot;&gt;1&lt;/span&gt;)],&lt;/div&gt;&lt;div style=&quot;font-size: 14px; line-height: 136%;&quot;&gt;&amp;nbsp; &amp;nbsp; &lt;span style=&quot;color: rgb(80, 161, 79); font-size: 14px;&quot;&gt;&#39;C&#39;&lt;/span&gt;: [(&lt;span style=&quot;color: rgb(80, 161, 79); font-size: 14px;&quot;&gt;&#39;G&#39;&lt;/span&gt;, &lt;span style=&quot;color: rgb(152, 104, 1); font-size: 14px;&quot;&gt;2&lt;/span&gt;)],&lt;/div&gt;&lt;div style=&quot;font-size: 14px; line-height: 136%;&quot;&gt;&amp;nbsp; &amp;nbsp; &lt;span style=&quot;color: rgb(80, 161, 79); font-size: 14px;&quot;&gt;&#39;D&#39;&lt;/span&gt;: [(&lt;span style=&quot;color: rgb(80, 161, 79); font-size: 14px;&quot;&gt;&#39;H&#39;&lt;/span&gt;, &lt;span style=&quot;color: rgb(152, 104, 1); font-size: 14px;&quot;&gt;5&lt;/span&gt;)],&lt;/div&gt;&lt;div style=&quot;font-size: 14px; line-height: 136%;&quot;&gt;&amp;nbsp; &amp;nbsp; &lt;span style=&quot;color: rgb(80, 161, 79); font-size: 14px;&quot;&gt;&#39;E&#39;&lt;/span&gt;: [(&lt;span style=&quot;color: rgb(80, 161, 79); font-size: 14px;&quot;&gt;&#39;I&#39;&lt;/span&gt;, &lt;span style=&quot;color: rgb(152, 104, 1); font-size: 14px;&quot;&gt;6&lt;/span&gt;), (&lt;span style=&quot;color: rgb(80, 161, 79); font-size: 14px;&quot;&gt;&#39;J&#39;&lt;/span&gt;, &lt;span style=&quot;color: rgb(152, 104, 1); font-size: 14px;&quot;&gt;3&lt;/span&gt;)],&lt;/div&gt;&lt;div style=&quot;font-size: 14px; line-height: 136%;&quot;&gt;&amp;nbsp; &amp;nbsp; &lt;span style=&quot;color: rgb(80, 161, 79); font-size: 14px;&quot;&gt;&#39;F&#39;&lt;/span&gt;: [(&lt;span style=&quot;color: rgb(80, 161, 79); font-size: 14px;&quot;&gt;&#39;L&#39;&lt;/span&gt;, &lt;span style=&quot;color: rgb(152, 104, 1); font-size: 14px;&quot;&gt;8&lt;/span&gt;)],&lt;/div&gt;&lt;div style=&quot;font-size: 14px; line-height: 136%;&quot;&gt;&amp;nbsp; &amp;nbsp; &lt;span style=&quot;color: rgb(80, 161, 79); font-size: 14px;&quot;&gt;&#39;G&#39;&lt;/span&gt;: [(&lt;span style=&quot;color: rgb(80, 161, 79); font-size: 14px;&quot;&gt;&#39;K&#39;&lt;/span&gt;, &lt;span style=&quot;color: rgb(152, 104, 1); font-size: 14px;&quot;&gt;7&lt;/span&gt;)],&lt;/div&gt;&lt;div style=&quot;font-size: 14px; line-height: 136%;&quot;&gt;&amp;nbsp; &amp;nbsp; &lt;span style=&quot;color: rgb(80, 161, 79); font-size: 14px;&quot;&gt;&#39;H&#39;&lt;/span&gt;: [(&lt;span style=&quot;color: rgb(80, 161, 79); font-size: 14px;&quot;&gt;&#39;M&#39;&lt;/span&gt;, &lt;span style=&quot;color: rgb(152, 104, 1); font-size: 14px;&quot;&gt;3&lt;/span&gt;)],&lt;/div&gt;&lt;div style=&quot;font-size: 14px; line-height: 136%;&quot;&gt;&amp;nbsp; &amp;nbsp; &lt;span style=&quot;color: rgb(80, 161, 79); font-size: 14px;&quot;&gt;&#39;I&#39;&lt;/span&gt;: [],&lt;/div&gt;&lt;div style=&quot;font-size: 14px; line-height: 136%;&quot;&gt;&amp;nbsp; &amp;nbsp; &lt;span style=&quot;color: rgb(80, 161, 79); font-size: 14px;&quot;&gt;&#39;J&#39;&lt;/span&gt;: [],&lt;/div&gt;&lt;div style=&quot;font-size: 14px; line-height: 136%;&quot;&gt;&amp;nbsp; &amp;nbsp; &lt;span style=&quot;color: rgb(80, 161, 79); font-size: 14px;&quot;&gt;&#39;K&#39;&lt;/span&gt;: [],&lt;/div&gt;&lt;div style=&quot;font-size: 14px; line-height: 136%;&quot;&gt;&amp;nbsp; &amp;nbsp; &lt;span style=&quot;color: rgb(80, 161, 79); font-size: 14px;&quot;&gt;&#39;L&#39;&lt;/span&gt;: [],&lt;/div&gt;&lt;div style=&quot;font-size: 14px; line-height: 136%;&quot;&gt;&amp;nbsp; &amp;nbsp; &lt;span style=&quot;color: rgb(80, 161, 79); font-size: 14px;&quot;&gt;&#39;M&#39;&lt;/span&gt;: [],&lt;/div&gt;&lt;div style=&quot;font-size: 14px; line-height: 136%;&quot;&gt;}&lt;/div&gt;&lt;div style=&quot;font-size: 14px; line-height: 136%;&quot;&gt;costs = {&lt;/div&gt;&lt;div style=&quot;font-size: 14px; line-height: 136%;&quot;&gt;&amp;nbsp; &amp;nbsp; &lt;span style=&quot;color: rgb(80, 161, 79); font-size: 14px;&quot;&gt;&#39;A&#39;&lt;/span&gt;: &lt;span style=&quot;color: rgb(152, 104, 1); font-size: 14px;&quot;&gt;0&lt;/span&gt;, &lt;span style=&quot;color: rgb(80, 161, 79); font-size: 14px;&quot;&gt;&#39;B&#39;&lt;/span&gt;: &lt;span style=&quot;color: rgb(152, 104, 1); font-size: 14px;&quot;&gt;2&lt;/span&gt;, &lt;span style=&quot;color: rgb(80, 161, 79); font-size: 14px;&quot;&gt;&#39;C&#39;&lt;/span&gt;: &lt;span style=&quot;color: rgb(152, 104, 1); font-size: 14px;&quot;&gt;4&lt;/span&gt;, &lt;span style=&quot;color: rgb(80, 161, 79); font-size: 14px;&quot;&gt;&#39;D&#39;&lt;/span&gt;: &lt;span style=&quot;color: rgb(152, 104, 1); font-size: 14px;&quot;&gt;5&lt;/span&gt;, &lt;span style=&quot;color: rgb(80, 161, 79); font-size: 14px;&quot;&gt;&#39;E&#39;&lt;/span&gt;: &lt;span style=&quot;color: rgb(152, 104, 1); font-size: 14px;&quot;&gt;6&lt;/span&gt;, &lt;span style=&quot;color: rgb(80, 161, 79); font-size: 14px;&quot;&gt;&#39;F&#39;&lt;/span&gt;: &lt;span style=&quot;color: rgb(152, 104, 1); font-size: 14px;&quot;&gt;1&lt;/span&gt;,&lt;/div&gt;&lt;div style=&quot;font-size: 14px; line-height: 136%;&quot;&gt;&amp;nbsp; &amp;nbsp; &lt;span style=&quot;color: rgb(80, 161, 79); font-size: 14px;&quot;&gt;&#39;G&#39;&lt;/span&gt;: &lt;span style=&quot;color: rgb(152, 104, 1); font-size: 14px;&quot;&gt;3&lt;/span&gt;, &lt;span style=&quot;color: rgb(80, 161, 79); font-size: 14px;&quot;&gt;&#39;H&#39;&lt;/span&gt;: &lt;span style=&quot;color: rgb(152, 104, 1); font-size: 14px;&quot;&gt;7&lt;/span&gt;, &lt;span style=&quot;color: rgb(80, 161, 79); font-size: 14px;&quot;&gt;&#39;I&#39;&lt;/span&gt;: &lt;span style=&quot;color: rgb(152, 104, 1); font-size: 14px;&quot;&gt;8&lt;/span&gt;, &lt;span style=&quot;color: rgb(80, 161, 79); font-size: 14px;&quot;&gt;&#39;J&#39;&lt;/span&gt;: &lt;span style=&quot;color: rgb(152, 104, 1); font-size: 14px;&quot;&gt;2&lt;/span&gt;, &lt;span style=&quot;color: rgb(80, 161, 79); font-size: 14px;&quot;&gt;&#39;K&#39;&lt;/span&gt;: &lt;span style=&quot;color: rgb(152, 104, 1); font-size: 14px;&quot;&gt;3&lt;/span&gt;, &lt;span style=&quot;color: rgb(80, 161, 79); font-size: 14px;&quot;&gt;&#39;L&#39;&lt;/span&gt;: &lt;span style=&quot;color: rgb(152, 104, 1); font-size: 14px;&quot;&gt;6&lt;/span&gt;, &lt;span style=&quot;color: rgb(80, 161, 79); font-size: 14px;&quot;&gt;&#39;M&#39;&lt;/span&gt;: &lt;span style=&quot;color: rgb(152, 104, 1); font-size: 14px;&quot;&gt;1&lt;/span&gt;&lt;/div&gt;&lt;div style=&quot;font-size: 14px; line-height: 136%;&quot;&gt;}&lt;/div&gt;&lt;div style=&quot;font-size: 14px; line-height: 136%;&quot;&gt;visited = []&lt;/div&gt;&lt;div style=&quot;font-size: 14px; line-height: 136%;&quot;&gt;priority_queue = [(&lt;span style=&quot;color: rgb(152, 104, 1); font-size: 14px;&quot;&gt;0&lt;/span&gt;, &lt;span style=&quot;color: rgb(80, 161, 79); font-size: 14px;&quot;&gt;&#39;Start&#39;&lt;/span&gt;)]&lt;/div&gt;&lt;div style=&quot;font-size: 14px; line-height: 136%;&quot;&gt;&lt;span style=&quot;color: rgb(166, 38, 164); font-size: 14px;&quot;&gt;def&lt;/span&gt; &lt;span style=&quot;color: rgb(64, 120, 242); font-size: 14px;&quot;&gt;astr&lt;/span&gt;(&lt;span style=&quot;color: rgb(152, 104, 1); font-size: 14px;&quot;&gt;start_node&lt;/span&gt;,&lt;span style=&quot;color: rgb(152, 104, 1); font-size: 14px;&quot;&gt; goal_node&lt;/span&gt;,&lt;span style=&quot;color: rgb(152, 104, 1); font-size: 14px;&quot;&gt; graph&lt;/span&gt;,&lt;span style=&quot;color: rgb(152, 104, 1); font-size: 14px;&quot;&gt; costs&lt;/span&gt;,&lt;span style=&quot;color: rgb(152, 104, 1); font-size: 14px;&quot;&gt; visited&lt;/span&gt;,&lt;span style=&quot;color: rgb(152, 104, 1); font-size: 14px;&quot;&gt; priority_queue&lt;/span&gt;):&lt;/div&gt;&lt;div style=&quot;font-size: 14px; line-height: 136%;&quot;&gt;&amp;nbsp; &amp;nbsp; &lt;span style=&quot;color: rgb(166, 38, 164); font-size: 14px;&quot;&gt;if&lt;/span&gt; start_node &lt;span style=&quot;color: rgb(166, 38, 164); font-size: 14px;&quot;&gt;not&lt;/span&gt; &lt;span style=&quot;color: rgb(166, 38, 164); font-size: 14px;&quot;&gt;in&lt;/span&gt; visited:&lt;/div&gt;&lt;div style=&quot;font-size: 14px; line-height: 136%;&quot;&gt;&amp;nbsp; &amp;nbsp; &amp;nbsp; &amp;nbsp; &lt;span style=&quot;color: rgb(1, 132, 188); font-size: 14px;&quot;&gt;print&lt;/span&gt;(start_node) &lt;/div&gt;&lt;div style=&quot;font-size: 14px; line-height: 136%;&quot;&gt;&amp;nbsp; &amp;nbsp; &amp;nbsp; &amp;nbsp; visited.append(start_node)&lt;/div&gt;&lt;div style=&quot;font-size: 14px; line-height: 136%;&quot;&gt;&amp;nbsp; &amp;nbsp; &lt;span style=&quot;color: rgb(166, 38, 164); font-size: 14px;&quot;&gt;for&lt;/span&gt; neighbor, cost &lt;span style=&quot;color: rgb(166, 38, 164); font-size: 14px;&quot;&gt;in&lt;/span&gt; graph[start_node]:&lt;/div&gt;&lt;div style=&quot;font-size: 14px; line-height: 136%;&quot;&gt;&amp;nbsp; &amp;nbsp; &amp;nbsp; &amp;nbsp; &lt;span style=&quot;color: rgb(166, 38, 164); font-size: 14px;&quot;&gt;if&lt;/span&gt; neighbor &lt;span style=&quot;color: rgb(166, 38, 164); font-size: 14px;&quot;&gt;not&lt;/span&gt; &lt;span style=&quot;color: rgb(166, 38, 164); font-size: 14px;&quot;&gt;in&lt;/span&gt; visited:&lt;/div&gt;&lt;div style=&quot;font-size: 14px; line-height: 136%;&quot;&gt;&amp;nbsp; &amp;nbsp; &amp;nbsp; &amp;nbsp; &amp;nbsp; &amp;nbsp; current_cost = priority_queue[&lt;span style=&quot;color: rgb(152, 104, 1); font-size: 14px;&quot;&gt;0&lt;/span&gt;][&lt;span style=&quot;color: rgb(152, 104, 1); font-size: 14px;&quot;&gt;0&lt;/span&gt;] - costs[start_node] + cost&lt;/div&gt;&lt;div style=&quot;font-size: 14px; line-height: 136%;&quot;&gt;&amp;nbsp; &amp;nbsp; &amp;nbsp; &amp;nbsp; &amp;nbsp; &amp;nbsp; total_cost = current_cost + costs[neighbor]&lt;/div&gt;&lt;div style=&quot;font-size: 14px; line-height: 136%;&quot;&gt;&amp;nbsp; &amp;nbsp; &amp;nbsp; &amp;nbsp; &amp;nbsp; &amp;nbsp; priority_queue.append((total_cost, neighbor))&lt;/div&gt;&lt;div style=&quot;font-size: 14px; line-height: 136%;&quot;&gt;&amp;nbsp; &amp;nbsp; &amp;nbsp; &amp;nbsp; &amp;nbsp; &amp;nbsp; priority_queue.sort(&lt;span style=&quot;color: rgb(152, 104, 1); font-size: 14px;&quot;&gt;key&lt;/span&gt;=&lt;span style=&quot;color: rgb(166, 38, 164); font-size: 14px;&quot;&gt;lambda&lt;/span&gt; &lt;span style=&quot;color: rgb(152, 104, 1); font-size: 14px;&quot;&gt;x&lt;/span&gt;: x[&lt;span style=&quot;color: rgb(152, 104, 1); font-size: 14px;&quot;&gt;0&lt;/span&gt;])&lt;/div&gt;&lt;div style=&quot;font-size: 14px; line-height: 136%;&quot;&gt;&amp;nbsp; &amp;nbsp; &lt;span style=&quot;color: rgb(166, 38, 164); font-size: 14px;&quot;&gt;if&lt;/span&gt; priority_queue[&lt;span style=&quot;color: rgb(152, 104, 1); font-size: 14px;&quot;&gt;0&lt;/span&gt;][&lt;span style=&quot;color: rgb(152, 104, 1); font-size: 14px;&quot;&gt;1&lt;/span&gt;] == goal_node:&lt;/div&gt;&lt;div style=&quot;font-size: 14px; line-height: 136%;&quot;&gt;&amp;nbsp; &amp;nbsp; &amp;nbsp; &amp;nbsp; &lt;span style=&quot;color: rgb(1, 132, 188); font-size: 14px;&quot;&gt;print&lt;/span&gt;(priority_queue[&lt;span style=&quot;color: rgb(152, 104, 1); font-size: 14px;&quot;&gt;0&lt;/span&gt;][&lt;span style=&quot;color: rgb(152, 104, 1); font-size: 14px;&quot;&gt;1&lt;/span&gt;]) &lt;/div&gt;&lt;div style=&quot;font-size: 14px; line-height: 136%;&quot;&gt;&amp;nbsp; &amp;nbsp; &lt;span style=&quot;color: rgb(166, 38, 164); font-size: 14px;&quot;&gt;else&lt;/span&gt;:&lt;/div&gt;&lt;div style=&quot;font-size: 14px; line-height: 136%;&quot;&gt;&amp;nbsp; &amp;nbsp; &amp;nbsp; &amp;nbsp; next_node = priority_queue.pop(&lt;span style=&quot;color: rgb(152, 104, 1); font-size: 14px;&quot;&gt;0&lt;/span&gt;)&lt;/div&gt;&lt;div style=&quot;font-size: 14px; line-height: 136%;&quot;&gt;&amp;nbsp; &amp;nbsp; &amp;nbsp; &amp;nbsp; astr(next_node[&lt;span style=&quot;color: rgb(152, 104, 1); font-size: 14px;&quot;&gt;1&lt;/span&gt;], goal_node, graph, costs, visited, priority_queue)&lt;/div&gt;&lt;div style=&quot;font-size: 14px; line-height: 136%;&quot;&gt;astr(&lt;span style=&quot;color: rgb(80, 161, 79); font-size: 14px;&quot;&gt;&#39;Start&#39;&lt;/span&gt;, &lt;span style=&quot;color: rgb(80, 161, 79); font-size: 14px;&quot;&gt;&#39;Node12&#39;&lt;/span&gt;, graph, costs, visited, priority_queue)&lt;/div&gt;&lt;/div&gt;&lt;/div&gt;&lt;/div&gt;&lt;/div&gt;&lt;/div&gt;&lt;/div&gt;&lt;/div&gt;&lt;/div&gt;&lt;/div&gt;" style="rounded=1;whiteSpace=wrap;html=1;arcSize=3;strokeWidth=2;align=left;verticalAlign=top;spacing=15;spacingTop=31;fontSize=14;fontFamily=Mina;fontStyle=1;labelBackgroundColor=none;spacingLeft=5;fontSource=https%3A%2F%2Ffonts.googleapis.com%2Fcss%3Ffamily%3DMina;fillColor=#f0f0f0;" parent="XvlVAEgpclW0M0TlVri5-1" vertex="1">
          <mxGeometry width="710" height="780" as="geometry" />
        </mxCell>
        <mxCell id="XvlVAEgpclW0M0TlVri5-3" value="" style="group" parent="XvlVAEgpclW0M0TlVri5-1" vertex="1" connectable="0">
          <mxGeometry x="13" y="20.799999999999955" width="72" height="22.88" as="geometry" />
        </mxCell>
        <mxCell id="XvlVAEgpclW0M0TlVri5-4" value="&amp;nbsp; &amp;nbsp; &amp;nbsp; &amp;nbsp; &amp;nbsp; &amp;nbsp; &amp;nbsp; " style="strokeWidth=2;html=1;shape=mxgraph.flowchart.start_2;whiteSpace=wrap;fillColor=#ff5f56;strokeColor=none;" parent="XvlVAEgpclW0M0TlVri5-3" vertex="1">
          <mxGeometry x="2" y="2.0799999999999996" width="16" height="16.639999999999997" as="geometry" />
        </mxCell>
        <mxCell id="XvlVAEgpclW0M0TlVri5-5" value="&amp;nbsp; &amp;nbsp; &amp;nbsp; &amp;nbsp; &amp;nbsp; &amp;nbsp; &amp;nbsp; " style="strokeWidth=2;html=1;shape=mxgraph.flowchart.start_2;whiteSpace=wrap;fillColor=#ffbd2e;strokeColor=none;" parent="XvlVAEgpclW0M0TlVri5-3" vertex="1">
          <mxGeometry x="27" y="2.0799999999999996" width="16" height="16.639999999999997" as="geometry" />
        </mxCell>
        <mxCell id="XvlVAEgpclW0M0TlVri5-6" value="&amp;nbsp; &amp;nbsp; &amp;nbsp; &amp;nbsp; &amp;nbsp; &amp;nbsp; &amp;nbsp; " style="strokeWidth=2;html=1;shape=mxgraph.flowchart.start_2;whiteSpace=wrap;fillColor=#1fa831;strokeColor=none;" parent="XvlVAEgpclW0M0TlVri5-3" vertex="1">
          <mxGeometry x="52" y="2.0799999999999996" width="16" height="16.639999999999997" as="geometry" />
        </mxCell>
        <mxCell id="XvlVAEgpclW0M0TlVri5-7" value="" style="group" parent="1" vertex="1" connectable="0">
          <mxGeometry x="30" y="1200" width="476" height="40" as="geometry" />
        </mxCell>
        <mxCell id="XvlVAEgpclW0M0TlVri5-8" value="BFS Code implementation with Python 🐍" style="rounded=1;whiteSpace=wrap;html=1;fontSize=22;fillColor=#ffcccc;strokeColor=#000000;strokeWidth=2;fontFamily=Mina;arcSize=0;hachureGap=4;align=right;spacingRight=7;fontStyle=1" parent="XvlVAEgpclW0M0TlVri5-7" vertex="1">
          <mxGeometry x="20" width="456" height="40" as="geometry" />
        </mxCell>
        <mxCell id="XvlVAEgpclW0M0TlVri5-9" value="2" style="ellipse;whiteSpace=wrap;html=1;aspect=fixed;strokeWidth=2;fillColor=#e51400;strokeColor=#000000;fontFamily=Mina;fontStyle=1;fontSize=22;spacingTop=3;fontColor=#ffffff;" parent="XvlVAEgpclW0M0TlVri5-7" vertex="1">
          <mxGeometry width="40" height="40" as="geometry" />
        </mxCell>
        <mxCell id="XvlVAEgpclW0M0TlVri5-10" value="" style="group" parent="1" vertex="1" connectable="0">
          <mxGeometry x="30" y="30" width="460" height="40" as="geometry" />
        </mxCell>
        <mxCell id="XvlVAEgpclW0M0TlVri5-11" value="`a^&quot;*&quot;` Code implementation with Python 🐍" style="rounded=1;whiteSpace=wrap;html=1;fontSize=22;fillColor=#ffcccc;strokeColor=#000000;strokeWidth=2;fontFamily=Mina;arcSize=0;hachureGap=4;align=right;spacingRight=7;fontStyle=1" parent="XvlVAEgpclW0M0TlVri5-10" vertex="1">
          <mxGeometry x="20" width="440" height="40" as="geometry" />
        </mxCell>
        <mxCell id="XvlVAEgpclW0M0TlVri5-12" value="1" style="ellipse;whiteSpace=wrap;html=1;aspect=fixed;strokeWidth=2;fillColor=#e51400;strokeColor=#000000;fontFamily=Mina;fontStyle=1;fontSize=22;spacingTop=3;fontColor=#ffffff;" parent="XvlVAEgpclW0M0TlVri5-10" vertex="1">
          <mxGeometry width="40" height="40" as="geometry" />
        </mxCell>
        <mxCell id="XvlVAEgpclW0M0TlVri5-19" value="" style="group" parent="1" vertex="1" connectable="0">
          <mxGeometry x="59" y="1270" width="710" height="530" as="geometry" />
        </mxCell>
        <mxCell id="XvlVAEgpclW0M0TlVri5-20" value="&lt;div style=&quot;white-space: pre; font-size: 14px; color: rgb(255, 255, 255);&quot;&gt;&lt;div style=&quot;font-size: 14px; line-height: 120%;&quot;&gt;&lt;div style=&quot;font-size: 14px; line-height: 120%;&quot;&gt;&lt;div style=&quot;font-size: 14px; line-height: 126%;&quot;&gt;&lt;div style=&quot;font-size: 14px; line-height: 126%;&quot;&gt;&lt;div style=&quot;color: rgb(56, 58, 66); font-size: 14px; line-height: 19px;&quot;&gt;&lt;div style=&quot;font-size: 14px;&quot;&gt;&lt;div style=&quot;line-height: 19px;&quot;&gt;&lt;div style=&quot;line-height: 19px;&quot;&gt;&lt;div&gt;tree = {&lt;/div&gt;&lt;div&gt;&amp;nbsp; &amp;nbsp; &lt;span style=&quot;color: #50a14f;&quot;&gt;&quot;A&quot;&lt;/span&gt;: [&lt;span style=&quot;color: #50a14f;&quot;&gt;&quot;B&quot;&lt;/span&gt;, &lt;span style=&quot;color: #50a14f;&quot;&gt;&quot;C&quot;&lt;/span&gt;],&lt;/div&gt;&lt;div&gt;&amp;nbsp; &amp;nbsp; &lt;span style=&quot;color: #50a14f;&quot;&gt;&quot;B&quot;&lt;/span&gt;: [&lt;span style=&quot;color: #50a14f;&quot;&gt;&quot;D&quot;&lt;/span&gt;],&lt;/div&gt;&lt;div&gt;&amp;nbsp; &amp;nbsp; &lt;span style=&quot;color: #50a14f;&quot;&gt;&quot;C&quot;&lt;/span&gt;: [&lt;span style=&quot;color: #50a14f;&quot;&gt;&quot;E&quot;&lt;/span&gt;, &lt;span style=&quot;color: #50a14f;&quot;&gt;&quot;F&quot;&lt;/span&gt;],&lt;/div&gt;&lt;div&gt;&amp;nbsp; &amp;nbsp; &lt;span style=&quot;color: #50a14f;&quot;&gt;&quot;D&quot;&lt;/span&gt;: [&lt;span style=&quot;color: #50a14f;&quot;&gt;&quot;G&quot;&lt;/span&gt;, &lt;span style=&quot;color: #50a14f;&quot;&gt;&quot;H&quot;&lt;/span&gt;],&lt;/div&gt;&lt;div&gt;&amp;nbsp; &amp;nbsp; &lt;span style=&quot;color: #50a14f;&quot;&gt;&quot;E&quot;&lt;/span&gt;: [&lt;span style=&quot;color: #50a14f;&quot;&gt;&quot;I&quot;&lt;/span&gt;],&lt;/div&gt;&lt;div&gt;&amp;nbsp; &amp;nbsp; &lt;span style=&quot;color: #50a14f;&quot;&gt;&quot;F&quot;&lt;/span&gt;: [&lt;span style=&quot;color: #50a14f;&quot;&gt;&quot;J&quot;&lt;/span&gt;,&lt;span style=&quot;color: #50a14f;&quot;&gt;&quot;K&quot;&lt;/span&gt;],&lt;/div&gt;&lt;div&gt;&amp;nbsp; &amp;nbsp; &lt;span style=&quot;color: #50a14f;&quot;&gt;&quot;G&quot;&lt;/span&gt;: [ &lt;span style=&quot;color: #50a14f;&quot;&gt;&quot;L&quot;&lt;/span&gt;],&lt;/div&gt;&lt;div&gt;&amp;nbsp; &amp;nbsp; &lt;span style=&quot;color: #50a14f;&quot;&gt;&quot;H&quot;&lt;/span&gt;: [],&lt;/div&gt;&lt;div&gt;&amp;nbsp; &amp;nbsp; &lt;span style=&quot;color: #50a14f;&quot;&gt;&quot;I&quot;&lt;/span&gt;: [],&lt;/div&gt;&lt;div&gt;&amp;nbsp; &amp;nbsp; &lt;span style=&quot;color: #50a14f;&quot;&gt;&quot;J&quot;&lt;/span&gt;: [],&lt;/div&gt;&lt;div&gt;&amp;nbsp; &amp;nbsp; &lt;span style=&quot;color: #50a14f;&quot;&gt;&quot;K&quot;&lt;/span&gt;: [],&lt;/div&gt;&lt;div&gt;&amp;nbsp; &amp;nbsp; &lt;span style=&quot;color: #50a14f;&quot;&gt;&quot;L&quot;&lt;/span&gt;: [],&lt;/div&gt;&lt;div&gt;}&lt;/div&gt;&lt;div&gt;visited = []&lt;/div&gt;&lt;div&gt;&lt;span style=&quot;color: #a626a4;&quot;&gt;def&lt;/span&gt; &lt;span style=&quot;color: #4078f2;&quot;&gt;breadth_first_search&lt;/span&gt;(&lt;span style=&quot;color: #986801;&quot;&gt;visited&lt;/span&gt;,&lt;span style=&quot;color: #986801;&quot;&gt; tree&lt;/span&gt;,&lt;span style=&quot;color: #986801;&quot;&gt; start_node&lt;/span&gt;):&lt;/div&gt;&lt;div&gt;&amp;nbsp; &amp;nbsp; queue = [start_node]&lt;/div&gt;&lt;div&gt;&amp;nbsp; &amp;nbsp; &lt;span style=&quot;color: #a626a4;&quot;&gt;while&lt;/span&gt; queue:&lt;/div&gt;&lt;div&gt;&amp;nbsp; &amp;nbsp; &amp;nbsp; &amp;nbsp; current_node = queue.pop(&lt;span style=&quot;color: #986801;&quot;&gt;0&lt;/span&gt;)&lt;/div&gt;&lt;div&gt;&amp;nbsp; &amp;nbsp; &amp;nbsp; &amp;nbsp; &lt;span style=&quot;color: #a626a4;&quot;&gt;if&lt;/span&gt; current_node &lt;span style=&quot;color: #a626a4;&quot;&gt;not&lt;/span&gt; &lt;span style=&quot;color: #a626a4;&quot;&gt;in&lt;/span&gt; visited:&lt;/div&gt;&lt;div&gt;&amp;nbsp; &amp;nbsp; &amp;nbsp; &amp;nbsp; &amp;nbsp; &amp;nbsp; &lt;span style=&quot;color: #0184bc;&quot;&gt;print&lt;/span&gt;(current_node) &lt;/div&gt;&lt;div&gt;&amp;nbsp; &amp;nbsp; &amp;nbsp; &amp;nbsp; &amp;nbsp; &amp;nbsp; visited.append(current_node)&lt;/div&gt;&lt;div&gt;&amp;nbsp; &amp;nbsp; &amp;nbsp; &amp;nbsp; &amp;nbsp; &amp;nbsp; queue.extend([neighbor &lt;span style=&quot;color: #a626a4;&quot;&gt;for&lt;/span&gt; neighbor &lt;span style=&quot;color: #a626a4;&quot;&gt;in&lt;/span&gt; tree[current_node] &lt;span style=&quot;color: #a626a4;&quot;&gt;if&lt;/span&gt; neighbor &lt;span style=&quot;color: #a626a4;&quot;&gt;not&lt;/span&gt; &lt;span style=&quot;color: #a626a4;&quot;&gt;in&lt;/span&gt; visited])&lt;/div&gt;&lt;div&gt;breadth_first_search(visited, tree, &lt;span style=&quot;color: #50a14f;&quot;&gt;&quot;A&quot;&lt;/span&gt;)&lt;/div&gt;&lt;/div&gt;&lt;/div&gt;&lt;/div&gt;&lt;/div&gt;&lt;/div&gt;&lt;/div&gt;&lt;/div&gt;&lt;/div&gt;&lt;/div&gt;" style="rounded=1;whiteSpace=wrap;html=1;arcSize=6;strokeWidth=2;align=left;verticalAlign=top;spacing=15;spacingTop=31;fontSize=14;fontFamily=Mina;fontStyle=1;labelBackgroundColor=none;spacingLeft=5;fontSource=https%3A%2F%2Ffonts.googleapis.com%2Fcss%3Ffamily%3DMina;fillColor=#F0F0F0;strokeColor=#36393d;" parent="XvlVAEgpclW0M0TlVri5-19" vertex="1">
          <mxGeometry width="710" height="530" as="geometry" />
        </mxCell>
        <mxCell id="XvlVAEgpclW0M0TlVri5-21" value="" style="group" parent="XvlVAEgpclW0M0TlVri5-19" vertex="1" connectable="0">
          <mxGeometry x="13" y="20.799999999999955" width="72" height="22.88" as="geometry" />
        </mxCell>
        <mxCell id="XvlVAEgpclW0M0TlVri5-22" value="&amp;nbsp; &amp;nbsp; &amp;nbsp; &amp;nbsp; &amp;nbsp; &amp;nbsp; &amp;nbsp; " style="strokeWidth=2;html=1;shape=mxgraph.flowchart.start_2;whiteSpace=wrap;fillColor=#ff5f56;strokeColor=none;" parent="XvlVAEgpclW0M0TlVri5-21" vertex="1">
          <mxGeometry x="2" y="2.0799999999999996" width="16" height="16.639999999999997" as="geometry" />
        </mxCell>
        <mxCell id="XvlVAEgpclW0M0TlVri5-23" value="&amp;nbsp; &amp;nbsp; &amp;nbsp; &amp;nbsp; &amp;nbsp; &amp;nbsp; &amp;nbsp; " style="strokeWidth=2;html=1;shape=mxgraph.flowchart.start_2;whiteSpace=wrap;fillColor=#ffbd2e;strokeColor=none;" parent="XvlVAEgpclW0M0TlVri5-21" vertex="1">
          <mxGeometry x="27" y="2.0799999999999996" width="16" height="16.639999999999997" as="geometry" />
        </mxCell>
        <mxCell id="XvlVAEgpclW0M0TlVri5-24" value="&amp;nbsp; &amp;nbsp; &amp;nbsp; &amp;nbsp; &amp;nbsp; &amp;nbsp; &amp;nbsp; " style="strokeWidth=2;html=1;shape=mxgraph.flowchart.start_2;whiteSpace=wrap;fillColor=#1fa831;strokeColor=none;" parent="XvlVAEgpclW0M0TlVri5-21" vertex="1">
          <mxGeometry x="52" y="2.0799999999999996" width="16" height="16.639999999999997" as="geometry" />
        </mxCell>
        <mxCell id="XvlVAEgpclW0M0TlVri5-25" value="Done By" style="shape=hexagon;perimeter=hexagonPerimeter2;whiteSpace=wrap;fixedSize=1;size=16;fillColor=#ffcc99;strokeColor=#36393d;fontFamily=Dune Rise;fontSize=25;strokeWidth=2;align=center;spacingLeft=0;spacingBottom=0;fillStyle=hachure;fontStyle=1;" parent="1" vertex="1">
          <mxGeometry x="316" y="1960" width="196" height="57.14" as="geometry" />
        </mxCell>
        <mxCell id="XvlVAEgpclW0M0TlVri5-28" value="Ziad Mahmoud Mohamed Ra&#39;fat" style="rounded=1;whiteSpace=wrap;html=1;hachureGap=4;fontFamily=Chakra Petch;strokeWidth=2;fillColor=none;fontSize=22;fontStyle=1;labelBorderColor=none;textShadow=0;labelBackgroundColor=none;align=center;spacing=7;verticalAlign=middle;strokeColor=none;fontSource=https%3A%2F%2Ffonts.googleapis.com%2Fcss%3Ffamily%3DChakra%2BPetch;" parent="1" vertex="1">
          <mxGeometry x="237" y="2050" width="353" height="40" as="geometry" />
        </mxCell>
        <mxCell id="XvlVAEgpclW0M0TlVri5-29" value="12300232" style="rounded=1;whiteSpace=wrap;html=1;hachureGap=4;fontFamily=Chakra Petch;strokeWidth=2;fillColor=none;fontSize=20;fontStyle=1;labelBorderColor=none;textShadow=0;labelBackgroundColor=none;align=center;spacing=7;verticalAlign=middle;strokeColor=none;fontSource=https%3A%2F%2Ffonts.googleapis.com%2Fcss%3Ffamily%3DChakra%2BPetch;" parent="1" vertex="1">
          <mxGeometry x="358" y="2110" width="111" height="40" as="geometry" />
        </mxCell>
      </root>
    </mxGraphModel>
  </diagram>
</mxfile>
